HIERARCHY
ROOT HipCenter
{
    OFFSET 0.0 0.0 -0.0
    CHANNELS 6 Xposition Yposition Zposition Zrotation Xrotation Yrotation
    JOINT Spine
    {
        OFFSET 0.0 10.638886451721191 0.0
        CHANNELS 3 Zrotation Xrotation Yrotation
        JOINT ShoulderCenter
        {
            OFFSET 0.0 28.7485408782959 0.0
            CHANNELS 3 Zrotation Xrotation Yrotation
            JOINT LeftShoulder
            {
                OFFSET 16.908462524414062 0.0 0.0
                CHANNELS 3 Zrotation Xrotation Yrotation
                JOINT LeftElbow
                {
                    OFFSET 25.48190689086914 0.0 0.0
                    CHANNELS 3 Zrotation Xrotation Yrotation
                    JOINT LeftWrist
                    {
                        OFFSET 25.959964752197266 0.0 0.0
                        CHANNELS 3 Zrotation Xrotation Yrotation
                        JOINT LeftHand
                        {
                            OFFSET 2.8886895179748535 0.0 0.0
                            CHANNELS 3 Zrotation Xrotation Yrotation
                            End Site
                            {
                                OFFSET 1.1554758548736572 0.0 0.0
                            }
                        }
                    }
                }
            }
            JOINT RightShoulder
            {
                OFFSET -16.908462524414062 0.0 0.0
                CHANNELS 3 Zrotation Xrotation Yrotation
                JOINT RightElbow
                {
                    OFFSET -25.48190689086914 0.0 0.0
                    CHANNELS 3 Zrotation Xrotation Yrotation
                    JOINT RightWrist
                    {
                        OFFSET -25.959964752197266 0.0 0.0
                        CHANNELS 3 Zrotation Xrotation Yrotation
                        JOINT RightHand
                        {
                            OFFSET -2.8886895179748535 0.0 0.0
                            CHANNELS 3 Zrotation Xrotation Yrotation
                            End Site
                            {
                                OFFSET -1.1554758548736572 0.0 0.0
                            }
                        }
                    }
                }
            }
            End Site
            {
                OFFSET 0.0 11.499417304992676 0.0
            }
        }
    }
    JOINT LeftHip
    {
        OFFSET 12.546346664428711 0.0 0.0
        CHANNELS 3 Zrotation Xrotation Yrotation
        JOINT LeftKnee
        {
            OFFSET 0.0 -39.03428268432617 0.0
            CHANNELS 3 Zrotation Xrotation Yrotation
            JOINT LeftAnkle
            {
                OFFSET 0.0 -38.04364013671875 0.0
                CHANNELS 3 Zrotation Xrotation Yrotation
                JOINT LeftFoot
                {
                    OFFSET 0.0 -10.786394119262695 0.0
                    CHANNELS 3 Zrotation Xrotation Yrotation
                    End Site
                    {
                        OFFSET 0.0 0.0 4.314557075500488
                    }
                }
            }
        }
    }
    JOINT RightHip
    {
        OFFSET -12.546346664428711 0.0 0.0
        CHANNELS 3 Zrotation Xrotation Yrotation
        JOINT RightKnee
        {
            OFFSET 0.0 -39.03428268432617 0.0
            CHANNELS 3 Zrotation Xrotation Yrotation
            JOINT RightAnkle
            {
                OFFSET 0.0 -38.04364013671875 0.0
                CHANNELS 3 Zrotation Xrotation Yrotation
                JOINT RightFoot
                {
                    OFFSET 0.0 -10.786394119262695 0.0
                    CHANNELS 3 Zrotation Xrotation Yrotation
                    End Site
                    {
                        OFFSET 0.0 0.0 4.314557075500488
                    }
                }
            }
        }
    }
}
MOTION
Frames: 8
Frame Time: 0.03333333333333333
70.5999984741211 -14.100000381469727 -18.5 22.70283358475418 6.976874927034568 -69.68931259100302 -9.387935963079906 4.541562296293529 0.9070047591946775 -1.203613643753529e-07 -1.4558053083465126e-07 10.504530076575382 97.2750479400649 44.84101672035772 -80.97584681799172 3.903863702736687e-06 -2.1569567993767166e-06 147.89789845035983 2.6294837816395127e-06 -33.076012538795815 56.60492301254342 0.0 0.0 0.0 -94.64853274286484 46.4570939034711 51.72718831508107 -1.703346303689822e-06 -1.2843113058003612e-06 -136.7061878979625 -179.9999983189986 -27.00037277529415 133.57237952076923 6.3611093629270335e-15 6.3611093629270335e-15 -6.3611093629270335e-15 7.889807832220769 -55.242871835346506 27.939602065765587 41.66186902275063 40.70943087386835 -85.79831401908642 76.61831108521989 -47.10225492867371 134.5871834743643 0.0 0.0 1.5902773407317584e-15 -3.7524834928997697 -51.67656504234924 -25.778321658209617 -14.258079844366522 53.67534760175127 57.860581035930636 -100.65092838086336 -28.009464752350787 -152.91049342797223 7.951386703658791e-16 -3.1805546814635168e-15 -3.1805546814635168e-15
71.4000015258789 -14.699999809265137 -19.30000114440918 24.85159527848273 10.286091814183902 -66.18543735846892 -9.837163633922554 2.4800649310421248 0.5051883022776328 9.628297605102078e-07 -1.654468008120446e-06 11.247814479106689 102.27828127367206 44.19846708040362 -86.99673537355962 -1.287508362057052e-06 -1.4291237986065022e-06 148.77348935207488 -3.4862772778429287e-06 -18.24202826185592 64.45738116538624 6.361109362927035e-15 1.5902773407317588e-15 -8.827812596100317e-32 -100.98615445473985 44.70318324979807 60.11054193506249 1.1267922032050423e-06 -2.3697476291354134e-07 -138.63987850297983 179.99999914953656 -28.49429544234747 130.58611722261276 -6.3611093629270335e-15 6.3611093629270335e-15 3.531125038440127e-31 8.797274450469942 -57.176417893604444 29.95903231611096 37.71912200586545 35.54926699228754 -79.20660972038976 83.05609712830955 -53.52171031391315 143.15759904865143 0.0 4.770832022195277e-15 0.0 -5.651395223691631 -56.32274030832902 -31.008629794649906 -26.089608479244887 55.312055591650726 71.01937648140247 -98.92861322064859 -34.25367516091347 -148.10982116473966 7.951386703658791e-16 -3.310429723537619e-32 -4.770832022195274e-15
71.9000015258789 -15.399999618530273 -20.5 26.5650821965382 14.185674344454872 -61.918021343858534 -11.151691235810068 0.8745776152987197 0.1981986071932948 -1.0926722448881272e-06 -8.290040004784399e-07 13.330845343734499 108.03354996430318 41.70708595653669 -91.78268341023515 -1.5453700791116231e-06 1.5023868531626215e-06 148.69357010982517 7.616854601928002e-07 -9.786743555413672 70.04625076674435 0.0 0.0 0.0 -104.91000333061834 45.06397810763336 68.57657110793126 4.036468597319112e-07 -1.4086782101599047e-06 -141.00697799374421 -179.99999587234151 -28.869735268231608 120.77744434889539 6.3611093629270335e-15 1.7655625192200634e-31 3.1805546814635168e-15 9.079452701728682 -61.6209473229966 33.08832992044501 36.64211353822709 32.90407011176142 -73.98520313621046 84.81348721818178 -58.576245266759614 145.22748897265123 0.0 0.0 0.0 -7.3149032291328755 -60.015176493994126 -34.842123168636924 -38.45856692944883 55.37478065532288 84.84284269867481 -97.74614609012545 -38.60558050119198 -145.5259608314325 3.1805546814635168e-15 -8.827812596100317e-32 -3.1805546814635168e-15
72.39999389648438 -16.0 -22.100000381469727 26.56501285079675 19.179357730160103 -56.330304005805246 -10.885944322713682 2.494993305685639 0.5795157494761183 1.0683713211271662e-06 -1.6241390976861798e-06 11.664198782702421 112.60026616168517 40.6106581478847 -95.16946521725124 -3.031261318423152e-06 1.4190196142764388e-06 147.50294997881392 -2.1684090304188614e-06 -6.6557797213460415 69.2698971722239 0.0 0.0 0.0 -104.29033442023469 44.526044224374125 71.94163660947761 -2.501440836506243e-06 -5.246315097154963e-06 -143.1124184834537 179.9999948665569 -37.475600397183484 130.04498379123729 0.0 0.0 9.54166404439055e-15 7.99382743094062 -66.94104518494544 33.81748714060261 37.82538731970081 28.824275223129217 -68.86310269956158 76.45153338300274 -72.75477655459976 137.22651864659971 2.2069531490250793e-32 -7.951386703658791e-16 3.1805546814635164e-15 -8.810232976078767 -61.7210482841706 -37.16887671192089 -46.834282212079046 57.11183575334828 95.5664523702651 -98.08735695440471 -33.44379516661022 -147.49048291786883 -1.5902773407317582e-15 -1.2138242319637935e-31 8.74652537402467e-15
72.39999389648438 -16.599998474121094 -23.899999618530273 25.76931530376364 23.993860349090447 -50.2709972639412 -9.674325334989607 4.095123024754865 0.8699810260476208 -8.28037200007406e-07 1.34952892980388e-06 9.838345872669871 118.05753282166665 39.001722599044705 -99.59942775403164 1.7837184643949215e-07 1.109466002109904e-06 146.69248938784568 -1.462513382337765e-06 -5.188176687946474 72.40273195314927 0.0 -3.1805546814635168e-15 0.0 -103.4419701262093 43.47054702554477 75.7861164549135 1.2455524042418733e-06 -4.665269157052269e-09 -145.55524763150163 179.99999929782416 -42.74269455937775 130.37063295906094 -3.1805546814635176e-15 6.361109362927035e-15 3.1805546814635176e-15 5.474791003609898 -71.8574987519964 33.15733695055382 38.06406130630702 25.696704537797512 -61.721378916062804 28.63294125340228 -84.51012548552885 89.98030590170038 6.3611093629270335e-15 0.0 0.0 -9.064679081818939 -61.85452544307891 -36.514880870315075 -50.968462479719264 60.15413573663403 101.18893045241617 -99.45419510254811 -28.023408873631467 -149.72472030377926 9.54166404439055e-15 -4.770832022195276e-15 -7.156248033292914e-15
72.39999389648438 -17.299999237060547 -25.600000381469727 26.834021334815567 27.221065406725195 -45.993862025859414 -10.706669645257614 4.00384190010802 0.7759055618382754 -1.1359479992335822e-06 1.6452379591570152e-06 14.391335377708993 118.82570955915537 34.22691933006858 -99.2972767044304 -3.92840036922816e-07 7.746395231239314e-07 145.95779636948757 -6.590824195746849e-07 -2.638689546956541 76.57201275218162 -3.1805546814635168e-15 3.180554681463516e-15 6.361109362927033e-15 -106.97298380235199 46.904125147007264 83.24939371323866 1.241173301389243e-06 8.005208738453692e-07 -145.82616262064784 179.99999675809417 -48.67918815619288 127.05809380974311 6.3611093629270335e-15 3.1805546814635168e-15 -3.1805546814635168e-15 -0.7901883512060699 -76.95622514222198 30.427012168138827 38.012538188667065 23.243183760597542 -54.96148201726376 -65.75994612832146 -78.30070167583509 -3.3684020000376083 4.4139062980501586e-32 7.951386703658792e-16 -6.3611093629270335e-15 -11.268511901603105 -61.64428435978291 -34.24933826971956 -46.381884096009394 63.96399901357694 97.2923867037008 -100.69785294009996 -23.92628760413298 -151.31829223212011 1.5902773407317582e-15 1.5902773407317582e-15 -2.2069531490250793e-32
72.39999389648438 -18.0 -27.399999618530273 26.288214891892935 30.25567602379954 -42.24293731590158 -9.444823014066811 5.068572132029312 0.8799656378157199 -1.0954600446096634e-06 -1.4254715623632246e-06 13.304621644230297 119.36849960368968 35.45902455873527 -102.32189349574462 4.879206573312089e-07 -1.2679113966980475e-06 146.67251742199628 4.288134781735522e-06 0.06201489625319797 72.45357281312438 -1.7655625192200634e-31 -3.1805546814635168e-15 -6.3611093629270335e-15 -110.57368296570056 44.65393203229639 87.89306506781267 3.1409299784780683e-06 -7.791746655223603e-07 -145.8170029502894 -179.9999982817874 -50.219429589849746 128.62800198854202 0.0 0.0 0.0 -5.828055077789222 -80.35570230478405 27.0435784832682 36.895510996279164 21.235946378686325 -46.94698604515847 -77.49258473571275 -66.31685314090285 -14.246833695358227 0.0 0.0 0.0 -11.146952957198106 -60.51719237003389 -32.297511119734736 -38.21704002910392 64.78291579769368 88.69350448248278 -105.08966723264813 -23.445462709609018 -154.8667289431242 7.95138670365879e-16 -3.1805546814635164e-15 -3.1805546814635164e-15
72.5999984741211 -18.799999237060547 -29.30000114440918 22.275910026379446 32.43574043516025 -38.48992370180303 -5.973643715072942 7.8377180040267325 1.304147936426585 -1.7891584922453334e-07 8.64120754708755e-07 14.152306680852167 120.57019799822395 36.91584088706223 -106.36384953111857 1.0665856529322533e-06 1.5393681897001567e-06 147.42483339213018 -1.6648778920031628e-06 1.109498222838189 72.00743751184461 1.7655625192200634e-31 -3.1805546814635168e-15 6.3611093629270335e-15 -109.94709902109051 44.771742482381285 87.75765305103401 -2.5372447956239173e-06 3.4461627997555114e-06 -145.15692443468944 -179.9999987509473 -49.31108607053766 131.37918857651763 -6.361109362927033e-15 -6.361109362927033e-15 -3.1805546814635168e-15 -6.700207272207215 -80.79437948407652 24.039017054027173 36.02331044710471 19.261218162158777 -40.128949695477125 -77.01274288800961 -57.080114445063636 -13.085942077905647 0.0 0.0 3.1805546814635168e-15 -6.658738978367543 -59.921499184409335 -31.800680745748185 -38.23649543020828 63.19110775094508 87.76256083251465 -109.72236178134942 -24.385996506775445 -158.61353468047372 -7.951386703658792e-16 2.2069531490250793e-32 -3.1805546814635168e-15
